<svg xmlns="http://www.w3.org/2000/svg" viewBox="0 0 32 32" role="img" aria-label="Gorilla Troop">
  <rect width="32" height="32" rx="7" fill="#071427"/>
  <g transform="translate(2.4,2.4) scale(0.272)">
    <ellipse cx="13" cy="49" rx="14.5" ry="16.5" fill="#c4a36a"/>
    <ellipse cx="87" cy="49" rx="14.5" ry="16.5" fill="#c4a36a"/>
    <ellipse cx="50" cy="52" rx="35" ry="36" fill="#c4a36a"/>
    <path fill="#071427" d="M22 49c1.5-8 13-13.5 28-13.5S76.5 41 78 49c.4 2.3-2.1 4.1-4.4 3.4C67 50.4 58 49 50 49s-17 1.4-23.6 3.4C24.1 53.1 21.6 51.3 22 49z"/>
    <ellipse cx="37" cy="56.5" rx="5.8" ry="6.2" fill="#071427"/>
    <ellipse cx="63" cy="56.5" rx="5.8" ry="6.2" fill="#071427"/>
    <ellipse cx="50" cy="74" rx="20.5" ry="15" fill="#d4b57a"/>
    <path fill="#071427" d="M42 77c3.6 2.6 12.4 2.6 16 0 .55-.4.1-1-.5-.75-3.4 1.7-11.1 1.7-14.5 0-.6-.25-1.05.35-.5.75z"/>
  </g>
</svg>
